<svg width="578" height="585" viewBox="0 0 578 585" fill="none" xmlns="http://www.w3.org/2000/svg">
<path d="M397.311 96.241V161.632L302.697 135.826C269.568 127.684 237.367 151.234 237.367 183.554C237.367 183.554 237.235 531.428 237.235 546.21L95.0479 584.918V92.2324C95.0479 31.4765 156.402 -12.3679 218.153 4.16773L353.317 41.2476C379.289 48.1374 397.311 70.686 397.311 96.241Z" fill="white" fill-opacity="0.06"/>
<path d="M512.695 367.697L0 507.123V478.06C20.1421 472.924 320.153 392.751 350.631 382.479C378.061 373.334 396.215 348.782 396.215 321.347V160L510.707 193.071C599.226 220.004 600.551 339.136 512.562 367.697" fill="white" fill-opacity="0.06"/>
</svg>
