<svg width="145" height="39" viewBox="0 0 145 39" fill="none" xmlns="http://www.w3.org/2000/svg">
<path d="M143.219 21.677C142.117 20.9029 140.443 20.4418 138.173 20.2194C137.295 20.1453 136.665 19.9724 136.284 19.7171C136.094 19.5936 135.961 19.4536 135.878 19.3136C135.796 19.1654 135.746 18.9924 135.746 18.7866C135.746 18.2925 135.92 17.9631 136.243 17.7408C136.591 17.502 137.154 17.362 137.966 17.362H137.991C138.902 17.362 139.54 17.5514 139.938 17.8808C140.327 18.2019 140.534 18.696 140.543 19.4207V19.7418H144.379V19.4042C144.379 17.8066 143.865 16.4644 142.846 15.4598C141.694 14.2904 140.054 13.714 138.008 13.714H137.974C135.97 13.714 134.379 14.2575 133.285 15.3692C132.382 16.2832 131.918 17.4526 131.918 18.7783V18.7948V18.8278C131.918 20.2441 132.432 21.4217 133.443 22.2369C134.453 23.0686 135.92 23.538 137.834 23.7109C139.027 23.8098 139.897 24.0403 140.435 24.345C140.7 24.5015 140.891 24.6662 141.007 24.8473C141.123 25.0203 141.181 25.2261 141.181 25.4567C141.181 26.0496 140.957 26.4613 140.534 26.7413C140.087 27.0378 139.358 27.2107 138.331 27.2107H138.306C137.966 27.2107 137.635 27.1778 137.312 27.1201C136.914 27.0378 136.558 26.9225 136.251 26.7743C135.862 26.5684 135.58 26.3049 135.398 25.992C135.216 25.679 135.116 25.3002 135.116 24.8309V24.5097H131.28V24.8556C131.28 26.5355 131.852 27.9601 132.97 29.0306C134.23 30.2575 136.028 30.8587 138.281 30.8669H138.306C140.526 30.8669 142.266 30.2987 143.467 29.1212C144.478 28.1412 145 26.906 145 25.4814V25.4155C145 23.8015 144.387 22.5004 143.202 21.677" fill="white"/>
<path d="M58.366 15.4679C58.366 16.6208 57.9932 17.5349 57.2476 18.2513C56.4937 18.9924 55.5658 19.363 54.4059 19.363H49.7416V11.5894H54.4142C55.5741 11.5894 56.502 11.96 57.2559 12.7011C58.0015 13.4257 58.3743 14.3233 58.3743 15.4597L58.366 15.4679ZM60.023 10.066C58.5649 8.65783 56.6677 7.94141 54.4225 7.94141H45.8975V30.8175H49.7333V23.0357H54.4225C56.6677 23.0357 58.5649 22.3275 60.023 20.9111C61.4645 19.503 62.1936 17.6666 62.1936 15.4926V15.4679V15.4432C62.1936 13.294 61.4645 11.4659 60.023 10.066Z" fill="white"/>
<path d="M76.2696 22.2368C76.2696 23.6696 75.8139 24.8142 74.8943 25.7283C73.9747 26.6424 72.8231 27.0953 71.3816 27.0953C69.94 27.0953 68.7885 26.6424 67.8688 25.7283C66.9492 24.8142 66.4936 23.6696 66.4936 22.2368C66.4936 20.8039 66.9492 19.6593 67.8688 18.7453C68.7885 17.8312 69.94 17.3783 71.3816 17.3783C72.8231 17.3783 73.9747 17.8312 74.8943 18.7453C75.8139 19.6593 76.2696 20.8039 76.2696 22.2368ZM77.6117 16.1019C75.9879 14.4797 73.8919 13.6644 71.4064 13.6644H71.3816H71.3567C68.8713 13.6644 66.7753 14.4797 65.1514 16.1019C63.5028 17.6994 62.666 19.7581 62.666 22.2038V22.2285V22.2532C62.666 24.699 63.5028 26.7659 65.1514 28.3552C66.7753 29.9774 68.8713 30.7927 71.3567 30.7927H71.4064C73.8836 30.7927 75.9796 29.9774 77.6117 28.3552C79.2604 26.7576 80.0972 24.6907 80.0972 22.245V22.2203V22.1956C80.0972 19.7499 79.2604 17.683 77.6117 16.0937V16.1019Z" fill="white"/>
<path d="M86.4764 15.9539L86.1035 16.341V14.5952H82.2677V30.8094H86.1035V22.5335C86.1035 21.0018 86.5095 19.9066 87.28 19.1902C88.0505 18.4738 89.2352 18.0867 90.9004 18.0867H91.2235V14.274H90.9004C89.6246 14.274 88.5227 14.5293 87.6114 15.0481L87.5037 14.8669L87.6114 15.0481C87.1888 15.2869 86.816 15.5916 86.4764 15.9539Z" fill="white"/>
<path d="M104.587 14.2906H100.751V9.73682L96.9152 10.8814V14.2906H93.3942V17.9468H96.9152V30.8095H100.751V17.9468H104.587V14.2906Z" fill="white"/>
<path d="M108.895 22.2368C108.895 20.7545 109.359 19.5934 110.27 18.6794C111.19 17.7736 112.358 17.3124 113.849 17.3124C115.332 17.3124 116.509 17.7736 117.428 18.6794C118.34 19.5934 118.804 20.7545 118.804 22.2368C118.804 23.719 118.34 24.8801 117.428 25.7942C116.509 26.7082 115.34 27.1611 113.849 27.1611C112.366 27.1611 111.19 26.7 110.27 25.7942C109.359 24.8801 108.895 23.719 108.895 22.2368ZM105.059 22.2532C105.059 24.6578 105.863 26.7247 107.445 28.3634C109.003 29.9856 110.999 30.8091 113.336 30.8091H113.385C115.324 30.8091 117.022 30.2245 118.447 29.1045L118.795 28.8328V30.4962H122.631V13.9773H118.795V15.6408L118.447 15.369C117.022 14.2491 115.324 13.6644 113.385 13.6644H113.36H113.336C110.991 13.6644 109.003 14.4961 107.445 16.1101C105.863 17.7489 105.059 19.8075 105.059 22.2203V22.2368V22.2615V22.2532Z" fill="white"/>
<path d="M125.522 7.94141V30.8092H125.837H129.358V7.94141H125.522Z" fill="white"/>
<path d="M34.5227 9.11084V9.31671H34.0587V10.6343H33.8433V9.31671H33.3794V9.11084H34.5227Z" fill="white"/>
<path d="M36.1382 9.11084V10.6343H35.9145V9.58845L35.4091 10.346L34.9038 9.58845V10.6343H34.6884V9.11084H34.8375L35.4091 9.95902L35.9808 9.11084H36.1382Z" fill="white"/>
<path d="M24.7796 6.47574V10.7743L18.8643 9.07791C16.7931 8.54265 14.7799 10.0908 14.7799 12.2153C14.7799 12.2153 14.7716 35.0832 14.7716 36.0549L5.88208 38.5994V6.21223C5.88208 2.21839 9.71793 -0.663768 13.5786 0.423216L22.0291 2.86069C23.6529 3.3136 24.7796 4.79585 24.7796 6.47574Z" fill="white"/>
<path d="M32.0538 24.4355L0 33.6008V31.6903C1.25928 31.3527 20.016 26.0825 21.9215 25.4072C23.6364 24.8061 24.7715 23.1921 24.7715 21.3887V10.7823L31.9295 12.9563C37.4637 14.7268 37.5466 22.558 32.0455 24.4355" fill="#00C4D1"/>
</svg>
